PathFileType	4	(X/Y/Z)	C:\Users\italobelli\Desktop\GitHub\PTbot_officialCBL\Personal_Results\ABD21_noisy2.trc
DataRate	CameraRate	NumFrames	NumMarkers	Units	OrigDataRate	OrigDataStartFrame	OrigNumFrames
106.533333	106.533333	38	9	m	106.533333	1	800
Frame#	Time		gu		centelbow		EpL		centpxt8		centijc7		ij		ts		aa		ai
			X1	Y1	Z1	X2	Y2	Z2	X3	Y3	Z3	X4	Y4	Z4	X5	Y5	Z5	X6	Y6	Z6	X7	Y7	Z7	X8	Y8	Z8	X9	Y9	Z9

1	0	-0.087866	-0.017899	0.16359	-0.11202	-0.26467	0.18911	-0.11185	-0.25706	0.22044	-0.046816	-0.15316	-0.008669	-0.046816	0.031938	-0.008669	0	0	0	-0.1336	0.021259	0.044771	-0.11947	0.016926	0.16312	-0.14539	-0.091614	0.047299
2	0.0093867	-0.087825	-0.017931	0.16363	-0.11229	-0.26475	0.18883	-0.1121	-0.25717	0.22018	-0.046816	-0.15316	-0.008669	-0.046816	0.031938	-0.008669	0	0	0	-0.13357	0.021274	0.044799	-0.11944	0.016902	0.16315	-0.14539	-0.091596	0.047301
3	0.018773	-0.087785	-0.017963	0.16367	-0.11255	-0.26483	0.18857	-0.11235	-0.25728	0.21992	-0.046816	-0.15316	-0.008669	-0.046816	0.031938	-0.008669	0	0	0	-0.13355	0.02129	0.044826	-0.1194	0.016878	0.16317	-0.14539	-0.091578	0.047301
4	0.02816	-0.087745	-0.017994	0.1637	-0.11281	-0.2649	0.18831	-0.1126	-0.25738	0.21966	-0.046816	-0.15316	-0.008669	-0.046816	0.031938	-0.008669	0	0	0	-0.13352	0.021306	0.044851	-0.11937	0.016855	0.16319	-0.1454	-0.09156	0.047299
5	0.037547	-0.087705	-0.018024	0.16374	-0.11308	-0.26497	0.18805	-0.11285	-0.25748	0.21942	-0.046816	-0.15316	-0.008669	-0.046816	0.031938	-0.008669	0	0	0	-0.13349	0.021321	0.044875	-0.11934	0.016832	0.16321	-0.1454	-0.091542	0.047296
6	0.046934	-0.087665	-0.018054	0.16377	-0.11334	-0.26503	0.1878	-0.1131	-0.25757	0.21918	-0.046816	-0.15316	-0.008669	-0.046816	0.031938	-0.008669	0	0	0	-0.13347	0.021337	0.044897	-0.1193	0.016809	0.16323	-0.14541	-0.091524	0.04729
7	0.05632	-0.087626	-0.018084	0.16381	-0.1136	-0.26509	0.18756	-0.11335	-0.25765	0.21895	-0.046816	-0.15316	-0.008669	-0.046816	0.031938	-0.008669	0	0	0	-0.13344	0.021353	0.044918	-0.11927	0.016787	0.16325	-0.14541	-0.091506	0.047282
8	0.065707	-0.087586	-0.018112	0.16384	-0.11386	-0.26515	0.18733	-0.1136	-0.25773	0.21872	-0.046816	-0.15316	-0.008669	-0.046816	0.031938	-0.008669	0	0	0	-0.13342	0.021368	0.044937	-0.11924	0.016765	0.16327	-0.14542	-0.091488	0.047273
9	0.075094	-0.087548	-0.018141	0.16386	-0.11412	-0.2652	0.1871	-0.11385	-0.25781	0.2185	-0.046816	-0.15316	-0.008669	-0.046816	0.031938	-0.008669	0	0	0	-0.13339	0.021384	0.044955	-0.11921	0.016743	0.16328	-0.14542	-0.091469	0.047262
10	0.084481	-0.087509	-0.018169	0.16389	-0.11438	-0.26524	0.18688	-0.11409	-0.25788	0.21828	-0.046816	-0.15316	-0.008669	-0.046816	0.031938	-0.008669	0	0	0	-0.13337	0.0214	0.044971	-0.11918	0.016721	0.1633	-0.14543	-0.091451	0.047249
11	0.093867	-0.087472	-0.018196	0.16392	-0.11463	-0.26528	0.18666	-0.11434	-0.25794	0.21807	-0.046816	-0.15316	-0.008669	-0.046816	0.031938	-0.008669	0	0	0	-0.13334	0.021416	0.044986	-0.11914	0.0167	0.16331	-0.14544	-0.091432	0.047234
12	0.10325	-0.087434	-0.018223	0.16394	-0.11489	-0.26532	0.18645	-0.11459	-0.258	0.21787	-0.046816	-0.15316	-0.008669	-0.046816	0.031938	-0.008669	0	0	0	-0.13332	0.021432	0.044999	-0.11911	0.016679	0.16332	-0.14544	-0.091413	0.047218
13	0.11264	-0.087398	-0.01825	0.16396	-0.11515	-0.26536	0.18625	-0.11484	-0.25805	0.21767	-0.046816	-0.15316	-0.008669	-0.046816	0.031938	-0.008669	0	0	0	-0.13329	0.021448	0.045012	-0.11908	0.016658	0.16333	-0.14545	-0.091395	0.0472
14	0.12203	-0.087362	-0.018276	0.16398	-0.1154	-0.26539	0.18605	-0.11508	-0.2581	0.21748	-0.046816	-0.15316	-0.008669	-0.046816	0.031938	-0.008669	0	0	0	-0.13327	0.021464	0.045023	-0.11905	0.016638	0.16334	-0.14546	-0.091376	0.047181
15	0.13141	-0.087326	-0.018301	0.164	-0.11565	-0.26541	0.18586	-0.11533	-0.25814	0.21729	-0.046816	-0.15316	-0.008669	-0.046816	0.031938	-0.008669	0	0	0	-0.13324	0.02148	0.045032	-0.11902	0.016617	0.16335	-0.14547	-0.091357	0.04716
16	0.1408	-0.087292	-0.018326	0.16402	-0.11591	-0.26543	0.18568	-0.11557	-0.25818	0.21711	-0.046816	-0.15316	-0.008669	-0.046816	0.031938	-0.008669	0	0	0	-0.13322	0.021496	0.04504	-0.11899	0.016597	0.16336	-0.14548	-0.091338	0.047137
17	0.15019	-0.087258	-0.018351	0.16404	-0.11616	-0.26545	0.1855	-0.11582	-0.25822	0.21693	-0.046816	-0.15316	-0.008669	-0.046816	0.031938	-0.008669	0	0	0	-0.13319	0.021512	0.045047	-0.11896	0.016577	0.16336	-0.14549	-0.091319	0.047113
18	0.15957	-0.087225	-0.018376	0.16405	-0.11641	-0.26547	0.18533	-0.11606	-0.25825	0.21676	-0.046816	-0.15316	-0.008669	-0.046816	0.031938	-0.008669	0	0	0	-0.13317	0.021528	0.045053	-0.11894	0.016558	0.16337	-0.1455	-0.091299	0.047088
19	0.16896	-0.087193	-0.0184	0.16406	-0.11666	-0.26548	0.18516	-0.11631	-0.25828	0.2166	-0.046816	-0.15316	-0.008669	-0.046816	0.031938	-0.008669	0	0	0	-0.13315	0.021544	0.045058	-0.11891	0.016538	0.16337	-0.14551	-0.09128	0.047061
20	0.17835	-0.087161	-0.018423	0.16407	-0.1169	-0.26549	0.185	-0.11655	-0.2583	0.21644	-0.046816	-0.15316	-0.008669	-0.046816	0.031938	-0.008669	0	0	0	-0.13312	0.02156	0.045061	-0.11888	0.016519	0.16337	-0.14552	-0.091261	0.047033
21	0.18773	-0.087131	-0.018447	0.16408	-0.11715	-0.2655	0.18484	-0.1168	-0.25832	0.21629	-0.046816	-0.15316	-0.008669	-0.046816	0.031938	-0.008669	0	0	0	-0.1331	0.021576	0.045063	-0.11886	0.0165	0.16337	-0.14553	-0.091241	0.047004
22	0.19712	-0.087101	-0.01847	0.16409	-0.11739	-0.2655	0.18469	-0.11704	-0.25833	0.21614	-0.046816	-0.15316	-0.008669	-0.046816	0.031938	-0.008669	0	0	0	-0.13308	0.021592	0.045064	-0.11883	0.016481	0.16337	-0.14554	-0.091222	0.046973
23	0.20651	-0.087073	-0.018493	0.16409	-0.11764	-0.2655	0.18455	-0.11728	-0.25834	0.21599	-0.046816	-0.15316	-0.008669	-0.046816	0.031938	-0.008669	0	0	0	-0.13305	0.021609	0.045064	-0.11881	0.016462	0.16337	-0.14555	-0.091203	0.046941
24	0.21589	-0.087046	-0.018515	0.1641	-0.11788	-0.2655	0.18441	-0.11753	-0.25835	0.21586	-0.046816	-0.15316	-0.008669	-0.046816	0.031938	-0.008669	0	0	0	-0.13303	0.021625	0.045063	-0.11878	0.016444	0.16337	-0.14556	-0.091183	0.046908
25	0.22528	-0.08702	-0.018537	0.1641	-0.11812	-0.26549	0.18427	-0.11777	-0.25836	0.21572	-0.046816	-0.15316	-0.008669	-0.046816	0.031938	-0.008669	0	0	0	-0.13301	0.021641	0.045061	-0.11876	0.016425	0.16336	-0.14558	-0.091163	0.046874
26	0.23467	-0.086995	-0.018559	0.1641	-0.11836	-0.26548	0.18415	-0.11801	-0.25836	0.2156	-0.046816	-0.15316	-0.008669	-0.046816	0.031938	-0.008669	0	0	0	-0.13298	0.021657	0.045058	-0.11874	0.016407	0.16336	-0.14559	-0.091144	0.046838
27	0.24406	-0.086971	-0.01858	0.1641	-0.1186	-0.26547	0.18402	-0.11825	-0.25836	0.21547	-0.046816	-0.15316	-0.008669	-0.046816	0.031938	-0.008669	0	0	0	-0.13296	0.021674	0.045054	-0.11872	0.016389	0.16335	-0.1456	-0.091124	0.046802
28	0.25344	-0.086948	-0.018602	0.16409	-0.11883	-0.26546	0.1839	-0.1185	-0.25835	0.21535	-0.046816	-0.15316	-0.008669	-0.046816	0.031938	-0.008669	0	0	0	-0.13294	0.02169	0.045048	-0.1187	0.016371	0.16335	-0.14561	-0.091104	0.046765
29	0.26283	-0.086927	-0.018623	0.16409	-0.11907	-0.26545	0.18379	-0.11874	-0.25834	0.21524	-0.046816	-0.15316	-0.008669	-0.046816	0.031938	-0.008669	0	0	0	-0.13292	0.021706	0.045042	-0.11868	0.016353	0.16334	-0.14562	-0.091084	0.046726
30	0.27222	-0.086907	-0.018644	0.16408	-0.1193	-0.26543	0.18368	-0.11898	-0.25833	0.21513	-0.046816	-0.15316	-0.008669	-0.046816	0.031938	-0.008669	0	0	0	-0.13289	0.021723	0.045035	-0.11866	0.016335	0.16333	-0.14564	-0.091065	0.046687
31	0.2816	-0.086888	-0.018664	0.16407	-0.11954	-0.26541	0.18358	-0.11922	-0.25832	0.21503	-0.046816	-0.15316	-0.008669	-0.046816	0.031938	-0.008669	0	0	0	-0.13287	0.021739	0.045027	-0.11864	0.016317	0.16332	-0.14565	-0.091045	0.046646
32	0.29099	-0.086871	-0.018685	0.16406	-0.11977	-0.26539	0.18348	-0.11946	-0.25831	0.21493	-0.046816	-0.15316	-0.008669	-0.046816	0.031938	-0.008669	0	0	0	-0.13285	0.021755	0.045018	-0.11863	0.0163	0.16331	-0.14566	-0.091025	0.046605
33	0.30038	-0.086856	-0.018705	0.16405	-0.11999	-0.26537	0.18339	-0.1197	-0.25829	0.21484	-0.046816	-0.15316	-0.008669	-0.046816	0.031938	-0.008669	0	0	0	-0.13283	0.021772	0.045008	-0.11861	0.016282	0.1633	-0.14568	-0.091005	0.046563
34	0.30976	-0.086842	-0.018725	0.16403	-0.12022	-0.26535	0.1833	-0.11994	-0.25827	0.21475	-0.046816	-0.15316	-0.008669	-0.046816	0.031938	-0.008669	0	0	0	-0.1328	0.021788	0.044997	-0.1186	0.016264	0.16329	-0.14569	-0.090985	0.046521
35	0.31915	-0.086829	-0.018745	0.16401	-0.12045	-0.26532	0.18321	-0.12018	-0.25825	0.21466	-0.046816	-0.15316	-0.008669	-0.046816	0.031938	-0.008669	0	0	0	-0.13278	0.021805	0.044986	-0.11859	0.016247	0.16328	-0.1457	-0.090965	0.046477
36	0.32854	-0.086818	-0.018765	0.16399	-0.12067	-0.2653	0.18313	-0.12042	-0.25822	0.21458	-0.046816	-0.15316	-0.008669	-0.046816	0.031938	-0.008669	0	0	0	-0.13276	0.021821	0.044974	-0.11858	0.01623	0.16327	-0.14572	-0.090945	0.046433
37	0.33792	-0.086809	-0.018784	0.16397	-0.12089	-0.26527	0.18305	-0.12065	-0.2582	0.2145	-0.046816	-0.15316	-0.008669	-0.046816	0.031938	-0.008669	0	0	0	-0.13274	0.021837	0.04496	-0.11857	0.016212	0.16326	-0.14573	-0.090925	0.046388
38	0.34731	-0.086801	-0.018804	0.16395	-0.12111	-0.26524	0.18298	-0.12089	-0.25817	0.21443	-0.046816	-0.15316	-0.008669	-0.046816	0.031938	-0.008669	0	0	0	-0.13272	0.021854	0.044947	-0.11856	0.016195	0.16324	-0.14574	-0.090905	0.046342
